<?xml version="1.0" encoding="UTF-8" standalone="no"?>
<!-- Created with Inkscape (http://www.inkscape.org/) -->

<svg
   width="194.07341mm"
   height="216.96886mm"
   viewBox="0 0 194.07341 216.96886"
   version="1.1"
   id="svg5"
   xml:space="preserve"
   xmlns:inkscape="http://www.inkscape.org/namespaces/inkscape"
   xmlns:sodipodi="http://sodipodi.sourceforge.net/DTD/sodipodi-0.dtd"
   xmlns="http://www.w3.org/2000/svg"
   xmlns:svg="http://www.w3.org/2000/svg"><sodipodi:namedview
     id="namedview7"
     pagecolor="#505050"
     bordercolor="#eeeeee"
     borderopacity="1"
     inkscape:showpageshadow="0"
     inkscape:pageopacity="0"
     inkscape:pagecheckerboard="0"
     inkscape:deskcolor="#505050"
     inkscape:document-units="mm"
     showgrid="false"
     inkscape:zoom="0.53795867"
     inkscape:cx="200.75892"
     inkscape:cy="669.1964"
     inkscape:window-width="1920"
     inkscape:window-height="1009"
     inkscape:window-x="2552"
     inkscape:window-y="358"
     inkscape:window-maximized="1"
     inkscape:current-layer="layer1" /><defs
     id="defs2" /><g
     inkscape:label="Layer 1"
     inkscape:groupmode="layer"
     id="layer1"
     transform="translate(-14.923657,-40.287661)"><path
       style="fill:#808080;stroke-width:0.264583"
       d="m 25.309091,40.765346 c 2.453454,-0.759812 4.202626,-0.620297 5.886248,0.469462 1.371862,0.887975 1.443168,0.981999 4.667444,6.15499 3.759303,6.031363 4.121519,6.41196 7.780007,8.174767 2.986579,1.439047 4.531792,2.562714 5.26726,3.830322 0.674852,1.162879 1.27569,3.389181 1.362957,5.04915 0.05685,1.08133 0.06539,1.094434 1.301329,1.998308 4.74789,3.472247 9.110501,8.740631 10.346298,12.494414 1.706309,5.182995 0.432209,8.764969 -4.043889,11.368898 -4.425625,2.574535 -10.011833,3.059179 -16.19322,1.404821 -2.959006,-0.791925 -4.923956,-1.755437 -7.270231,-3.564924 -1.271581,-0.980664 -1.554061,-1.345053 -2.66337,-3.435713 -1.967264,-3.707581 -2.811282,-5.003084 -3.8148,-5.855688 -1.545824,-1.313287 -2.09712,-2.588959 -2.865399,-6.630357 -0.688182,-3.620086 -0.748681,-3.791373 -2.285979,-6.472972 -0.868795,-1.514797 -2.606926,-4.204887 -3.863175,-5.977594 -2.597002,-3.664661 -3.774583,-5.964731 -3.966229,-7.746892 -0.330329,-3.071845 2.01337,-6.378965 6.688433,-9.437837 1.330933,-0.870837 2.552203,-1.478134 3.666316,-1.823155 z"
       id="path618" /><path
       style="fill:#808080;stroke-width:0.264583"
       d="m 83.517109,111.61557 c 2.453454,-0.75982 4.202626,-0.6203 5.886248,0.46946 1.371862,0.88797 1.443168,0.982 4.667444,6.15499 3.759301,6.03136 4.121519,6.41196 7.780009,8.17477 2.98658,1.43904 4.53179,2.56271 5.26726,3.83031 0.67485,1.16288 1.27568,3.38918 1.36295,5.04915 0.0568,1.08134 0.0654,1.09444 1.30133,1.99831 4.74789,3.47225 9.1105,8.74063 10.3463,12.49442 1.70631,5.18299 0.43221,8.76496 -4.04389,11.36889 -4.42562,2.57454 -10.01183,3.05918 -16.19322,1.40482 -2.959006,-0.79192 -4.923955,-1.75543 -7.27023,-3.56492 -1.271581,-0.98066 -1.554061,-1.34505 -2.663371,-3.43571 -1.967263,-3.70758 -2.811283,-5.00309 -3.814798,-5.85569 -1.545823,-1.31328 -2.097123,-2.58896 -2.8654,-6.63036 -0.688183,-3.62009 -0.748683,-3.79137 -2.28598,-6.47297 -0.868795,-1.5148 -2.606925,-4.20489 -3.863172,-5.97759 -2.597002,-3.66466 -3.774584,-5.96473 -3.96623,-7.74689 -0.330328,-3.07185 2.01337,-6.37897 6.688434,-9.43784 1.330933,-0.87084 2.552203,-1.47813 3.666316,-1.82315 z"
       id="path618-0" /><path
       style="fill:#808080;stroke-width:0.264583"
       d="m 122.26733,181.34063 c 2.56651,-0.0989 4.21997,0.48856 5.56418,1.97695 1.09529,1.21277 1.13983,1.32205 2.91538,7.15329 2.07017,6.79882 2.32154,7.2602 5.39912,9.90982 2.51235,2.163 3.7141,3.64831 4.09642,5.06307 0.35088,1.29792 0.35504,3.60387 0.01,5.22986 -0.22495,1.05921 -0.2201,1.07407 0.73979,2.26703 3.68742,4.58278 6.53782,10.80078 6.75996,14.7465 0.30671,5.44801 -1.85106,8.57817 -6.84858,9.93488 -4.94117,1.34137 -10.46247,0.36369 -16.00505,-2.83416 -2.65322,-1.53079 -4.30183,-2.97004 -6.09984,-5.32513 -0.97444,-1.27636 -1.15298,-1.70145 -1.68339,-4.00798 -0.94064,-4.09041 -1.4206,-5.56022 -2.16925,-6.6435 -1.15324,-1.66862 -1.35559,-3.04351 -1.0517,-7.14605 0.27222,-3.67485 0.25811,-3.85596 -0.53276,-6.84407 -0.44713,-1.68804 -1.42979,-4.73633 -2.18442,-6.77377 -1.56003,-4.21194 -2.10218,-6.73842 -1.82604,-8.50946 0.47598,-3.05267 3.59576,-5.64051 8.90322,-7.38515 1.51098,-0.4967 2.84782,-0.76722 4.01326,-0.81213 z"
       id="path618-0-3" /><path
       style="fill:#808080;stroke-width:0.264583"
       d="m 82.977778,52.02567 c 1.97058,-0.486417 3.33829,-0.488433 4.540052,-0.0067 2.433237,0.975411 3.535531,1.94392 7.542456,6.627037 3.7694,4.405493 4.663518,5.11253 7.655154,6.053336 1.33684,0.420412 3.18425,1.150449 4.10538,1.622304 1.61263,0.826084 2.14975,1.326755 4.52112,4.214369 0.56165,0.683928 1.8483,1.948353 2.85921,2.80984 4.80621,4.095761 7.08101,10.422461 6.37259,17.723515 -0.25924,2.671754 -1.6746,6.647781 -3.16895,8.902231 -1.33187,2.009308 -1.455,2.124098 -3.91864,3.652698 -2.40313,1.49103 -2.61814,1.57775 -3.89445,1.56943 -3.0194,-0.0196 -6.41101,-1.76679 -9.49489,-4.89129 -1.347137,-1.364868 -1.966003,-2.269378 -4.339218,-6.341983 -2.767975,-4.750074 -2.767975,-4.750074 -4.947825,-5.615245 -3.944528,-1.565582 -4.825231,-2.716925 -6.180867,-8.080255 -0.999221,-3.953241 -1.52906,-4.69919 -5.640948,-7.941769 -1.739212,-1.371523 -3.611986,-3.020785 -4.161711,-3.665036 -1.931216,-2.263285 -2.372288,-4.679824 -1.3492,-7.391942 0.609109,-1.614693 2.518821,-4.429374 3.893003,-5.737801 1.519672,-1.446951 4.290286,-3.177567 5.607734,-3.502758 z"
       id="path512" /><path
       style="fill:#808080;stroke-width:0.264583"
       d="m 148.86185,118.32507 c 2.02932,0.0402 3.35095,0.39222 4.38708,1.1686 2.09788,1.57195 2.91194,2.79274 5.57025,8.35335 2.50073,5.23098 3.18139,6.14534 5.82759,7.82838 1.18247,0.75209 2.778,1.9354 3.54561,2.62958 1.34387,1.21532 1.73312,1.83795 3.27631,5.24092 0.36547,0.806 1.281,2.36036 2.03454,3.45412 3.58238,5.20014 4.14219,11.90002 1.56825,18.76894 -0.9419,2.51362 -3.3381,5.98785 -5.36503,7.77871 -1.80654,1.59615 -1.95518,1.67514 -4.7305,2.51402 -2.70716,0.81826 -2.93728,0.84637 -4.16796,0.508 -2.91143,-0.80042 -5.73527,-3.36588 -7.90539,-7.18208 -0.94801,-1.667 -1.31165,-2.70089 -2.54993,-7.24896 -1.44425,-5.30463 -1.44425,-5.30463 -3.3259,-6.70451 -3.40492,-2.53315 -3.95763,-3.8732 -3.87893,-9.40464 0.058,-4.07716 -0.26072,-4.93482 -3.39327,-9.13115 -1.32497,-1.77493 -2.70707,-3.85271 -3.07132,-4.61728 -1.27963,-2.686 -1.08023,-5.13436 0.60995,-7.48926 1.00627,-1.40204 3.5794,-3.62654 5.2454,-4.53471 1.84238,-1.00435 4.96652,-1.95889 6.32324,-1.93202 z"
       id="path512-6" /><path
       style="fill:#808080;stroke-width:0.264583"
       d="m 191.59533,197.27987 c 1.94978,0.56403 3.13526,1.24615 3.93515,2.26423 1.61954,2.06136 2.08992,3.45124 3.21844,9.51042 1.06165,5.69996 1.48246,6.75934 3.60289,9.06992 0.94752,1.0325 2.18242,2.58845 2.74421,3.45764 0.98354,1.52174 1.19839,2.22387 1.80822,5.91031 0.1444,0.87313 0.62645,2.61148 1.07122,3.86301 2.11442,5.95014 0.92109,12.56662 -3.34294,18.5353 -1.56038,2.18418 -4.77414,4.91985 -7.1955,6.12508 -2.15809,1.07419 -2.32212,1.11203 -5.22,1.20402 -2.82668,0.0897 -3.05625,0.0573 -4.15741,-0.58806 -2.60507,-1.52668 -4.66869,-4.73559 -5.77716,-8.98343 -0.48425,-1.85556 -0.56792,-2.94833 -0.58688,-7.66192 -0.0221,-5.49769 -0.0221,-5.49769 -1.47732,-7.33687 -2.63327,-3.32809 -2.82032,-4.76553 -1.31266,-10.08813 1.11126,-3.92322 1.02539,-4.83415 -0.91432,-9.69826 -0.82044,-2.05738 -1.61768,-4.42206 -1.77164,-5.25486 -0.54083,-2.92567 0.28545,-5.23899 2.52753,-7.07621 1.33486,-1.09381 4.39607,-2.57652 6.24035,-3.02258 2.03954,-0.49328 5.30427,-0.60671 6.60781,-0.22961 z"
       id="path512-6-6"
       inkscape:export-filename="prints.svg"
       inkscape:export-xdpi="96"
       inkscape:export-ydpi="96" /></g></svg>
